<svg viewBox="0 0 800 510" xmlns="http://www.w3.org/2000/svg">
  <rect width="800" height="510" fill="#0d1421"/>
  <rect x="78" y="52" width="700" height="400" fill="#1a2a44"/>
  <g stroke="#2a3a58" stroke-width="1">
    <line x1="78" y1="394.9" x2="778" y2="394.9"/>
    <line x1="78" y1="337.7" x2="778" y2="337.7"/>
    <line x1="78" y1="280.6" x2="778" y2="280.6"/>
    <line x1="78" y1="223.4" x2="778" y2="223.4"/>
    <line x1="78" y1="166.3" x2="778" y2="166.3"/>
    <line x1="78" y1="109.1" x2="778" y2="109.1"/>
    <line x1="253.0" y1="52" x2="253.0" y2="452"/>
    <line x1="428.0" y1="52" x2="428.0" y2="452"/>
    <line x1="603.0" y1="52" x2="603.0" y2="452"/>
  </g>
  <line x1="549.5" y1="52" x2="549.5" y2="452" stroke="#2e4870" stroke-width="1" stroke-dasharray="5 4"/>
  <line x1="78" y1="427.8" x2="778" y2="427.8" stroke="#78909c" stroke-width="1.3" stroke-dasharray="10 5"/>
  <text x="772" y="421.8" text-anchor="end" font-family="Arial,sans-serif" font-size="11" fill="#78909c">Proxima Centauri today (4.24 ly)</text>
  <line x1="78" y1="443.0" x2="778" y2="443.0" stroke="#e06858" stroke-width="1.3" stroke-dasharray="7 4"/>
  <text x="772" y="438.0" text-anchor="end" font-family="Arial,sans-serif" font-size="11" fill="#e06858">Outer Oort Cloud (~1.58 ly)</text>
  <rect x="78" y="52" width="700" height="400" fill="none" stroke="#3a4a64" stroke-width="1.5"/>
  <polyline fill="none" stroke="#f8d44e" stroke-width="2.6" stroke-linejoin="round" stroke-linecap="round" points="78.0,95.4 85.0,100.7 92.0,106.0 99.0,111.3 106.0,116.6 113.0,121.9 120.0,127.2 127.0,132.5 134.0,137.7 141.0,143.0 148.0,148.3 155.0,153.6 162.0,158.9 169.0,164.2 176.0,169.5 183.0,174.8 190.0,180.1 197.0,185.4 204.0,190.7 211.0,196.0 218.0,201.3 225.0,206.6 232.0,211.9 239.0,217.2 246.0,222.5 253.0,227.8 260.0,233.1 267.0,238.3 274.0,243.6 281.0,248.9 288.0,254.2 295.0,259.5 302.0,264.8 309.0,270.1 316.0,275.4 323.0,280.7 330.0,286.0 337.0,291.3 344.0,296.6 351.0,301.9 358.0,307.2 365.0,312.5 372.0,317.8 379.0,323.1 386.0,328.4 393.0,333.7 400.0,338.9 407.0,344.2 414.0,349.5 421.0,354.8 428.0,360.1 435.0,365.4 442.0,370.7 449.0,376.0 456.0,381.3 463.0,386.6 470.0,391.9 477.0,397.2 484.0,402.5 491.0,407.8 498.0,413.1 505.0,418.4 512.0,423.6 519.0,428.9 520.8,430.3 522.5,431.6 524.3,432.9 526.0,434.2 527.8,435.5 529.5,436.9 531.2,438.2 533.0,439.5 534.7,440.8 536.5,442.1 538.2,443.4 540.0,444.8 541.7,446.1 543.5,447.3 545.2,448.6 547.0,449.8 548.7,450.7 550.5,450.6 552.2,449.6 554.0,448.4 555.7,447.1 557.5,445.8 559.2,444.5 561.0,443.2 562.7,441.9 564.5,440.6 566.2,439.2 568.0,437.9 569.7,436.6 571.5,435.3 573.2,434.0 575.0,432.6 576.7,431.3 578.5,430.0 580.2,428.7 582.0,427.3 583.7,426.0 585.5,424.7 587.2,423.4 594.2,418.1 601.2,412.8 608.2,407.5 615.2,402.2 622.2,396.9 629.2,391.6 636.2,386.3 643.2,381.0 650.2,375.7 657.2,370.5 664.2,365.2 671.2,359.9 678.2,354.6 685.2,349.3 692.2,344.0 699.2,338.7 706.2,333.4 713.2,328.1 720.2,322.8 727.2,317.5 734.2,312.2 741.2,306.9 748.2,301.6 755.2,296.3 762.2,291.0 769.2,285.7 776.2,280.4"/>
  <circle cx="549.5" cy="450.8" r="5" fill="#f8d44e" stroke="#0d1421" stroke-width="1.5"/>
  <text transform="translate(18,252) rotate(-90)" text-anchor="middle" font-family="Arial,sans-serif" font-size="14" fill="#d1d1d1">Distance from Sun (Light-Years)</text>
  <text x="72" y="456.0" text-anchor="end" font-family="Arial,sans-serif" font-size="12" fill="#b0bec5">0</text>
  <text x="72" y="398.9" text-anchor="end" font-family="Arial,sans-serif" font-size="12" fill="#b0bec5">10</text>
  <text x="72" y="341.7" text-anchor="end" font-family="Arial,sans-serif" font-size="12" fill="#b0bec5">20</text>
  <text x="72" y="284.6" text-anchor="end" font-family="Arial,sans-serif" font-size="12" fill="#b0bec5">30</text>
  <text x="72" y="227.4" text-anchor="end" font-family="Arial,sans-serif" font-size="12" fill="#b0bec5">40</text>
  <text x="72" y="170.3" text-anchor="end" font-family="Arial,sans-serif" font-size="12" fill="#b0bec5">50</text>
  <text x="72" y="113.1" text-anchor="end" font-family="Arial,sans-serif" font-size="12" fill="#b0bec5">60</text>
  <text x="428" y="500" text-anchor="middle" font-family="Arial,sans-serif" font-size="14" fill="#d1d1d1">Time from Now (Million Years)</text>
  <text x="78.0" y="470" text-anchor="middle" font-family="Arial,sans-serif" font-size="12" fill="#b0bec5">0.0</text>
  <text x="253.0" y="470" text-anchor="middle" font-family="Arial,sans-serif" font-size="12" fill="#b0bec5">0.5</text>
  <text x="428.0" y="470" text-anchor="middle" font-family="Arial,sans-serif" font-size="12" fill="#b0bec5">1.0</text>
  <text x="603.0" y="470" text-anchor="middle" font-family="Arial,sans-serif" font-size="12" fill="#b0bec5">1.5</text>
  <text x="778.0" y="470" text-anchor="middle" font-family="Arial,sans-serif" font-size="12" fill="#b0bec5">2.0</text>
  <text x="86" y="74" font-family="Arial,sans-serif" font-size="14" font-weight="bold" fill="#f8d44e">Gliese 710</text>
  <rect x="88" y="308" width="258" height="84" rx="4" fill="#0d1421" stroke="#f8d44e" stroke-width="1.3" opacity="0.97"/>
  <text x="96" y="326" font-family="Arial,sans-serif" font-size="12" font-weight="bold" fill="#f8d44e">Perihelion: ~1.35 million years</text>
  <text x="96" y="343" font-family="Arial,sans-serif" font-size="11.5" fill="#d1d1d1">Distance: 0.211 ly (~13,350 AU)</text>
  <text x="96" y="360" font-family="Arial,sans-serif" font-size="11" fill="#b0bec5">Inside the inner Oort Cloud</text>
  <text x="96" y="377" font-family="Arial,sans-serif" font-size="10" fill="#78909c">Bailer-Jones et al. (2018)</text>
  <defs>
    <marker id="a1" markerWidth="8" markerHeight="6" refX="7" refY="3" orient="auto">
      <polygon points="0 0,8 3,0 6" fill="#f8d44e"/>
    </marker>
  </defs>
  <line x1="346" y1="350" x2="546.5" y2="450.8" stroke="#f8d44e" stroke-width="1.2" stroke-dasharray="4 2" marker-end="url(#a1)"/>
</svg>
